<svg xmlns="http://www.w3.org/2000/svg" xmlns:xlink="http://www.w3.org/1999/xlink" width="1320" zoomAndPan="magnify" viewBox="0 0 990 318.749988" height="425" preserveAspectRatio="xMidYMid meet" version="1.2"><defs><clipPath id="55ae3c78db"><path d="M 0.386719 9 L 989 9 L 989 317 L 0.386719 317 Z M 0.386719 9 "/></clipPath><filter x="0%" y="0%" width="100%" filterUnits="objectBoundingBox" id="1c853204e9" height="100%"><feColorMatrix values="0 0 0 0 1 0 0 0 0 1 0 0 0 0 1 0 0 0 1 0" type="matrix" in="SourceGraphic"/></filter><clipPath id="64ff80d636"><path d="M 1 9 L 988.414062 9 L 988.414062 300 L 1 300 Z M 1 9 "/></clipPath><clipPath id="3006473822"><rect x="0" width="989" y="0" height="308"/></clipPath><clipPath id="88d55fe90d"><path d="M 1 9 L 988.414062 9 L 988.414062 300 L 1 300 Z M 1 9 "/></clipPath><clipPath id="43eae90560"><rect x="0" width="989" y="0" height="308"/></clipPath></defs><g id="9b107a9844"><g clip-rule="nonzero" clip-path="url(#55ae3c78db)"><g mask="url(#08158f6a05)" transform="matrix(1,0,0,1,0.000000000000000056,9)"><g clip-path="url(#3006473822)"><g clip-rule="nonzero" clip-path="url(#64ff80d636)"><path style=" stroke:none;fill-rule:nonzero;fill:#ffffff;fill-opacity:1;" d="M 988.179688 75.253906 C 988.070312 74.925781 984.417969 67.203125 983.355469 69.550781 C 960.886719 119.082031 906.5625 158.976562 850.691406 142.890625 C 785.949219 124.25 751.097656 56.019531 692.167969 26.675781 C 621.613281 -8.472656 527.558594 9.0625 494.949219 86.832031 C 462.335938 9.050781 368.28125 -8.472656 297.714844 26.664062 C 238.785156 56.007812 203.9375 124.25 139.195312 142.878906 C 83.332031 158.957031 28.996094 119.074219 6.527344 69.539062 C 5.464844 67.191406 1.8125 74.914062 1.703125 75.242188 C 0.628906 78.519531 3.699219 86.316406 4.476562 89.671875 C 6.804688 99.609375 9.960938 109.34375 13.886719 118.753906 C 35.578125 170.675781 84.234375 221.789062 127.417969 256.8125 C 183.945312 302.664062 256.054688 307.421875 324.308594 289.328125 C 385.828125 273.023438 452.390625 243.820312 486.679688 187.09375 C 489.957031 181.664062 492.601562 176.039062 494.9375 170.335938 C 497.273438 176.050781 499.914062 181.675781 503.195312 187.09375 C 537.484375 243.820312 604.058594 273.011719 665.566406 289.328125 C 733.816406 307.421875 805.925781 302.664062 862.457031 256.8125 C 905.640625 221.789062 954.296875 170.675781 975.984375 118.753906 C 979.921875 109.34375 983.082031 99.609375 985.394531 89.671875 C 986.195312 86.339844 989.253906 78.53125 988.179688 75.253906 Z M 988.179688 75.253906 "/></g></g><mask id="08158f6a05"><g filter="url(#1c853204e9)"><rect x="0" width="990" y="0" height="318.749988" style="fill:#000000;fill-opacity:0.4;stroke:none;"/></g></mask></g><g mask="url(#bca15cd596)" transform="matrix(1,0,0,1,0.000000000000000056,9)"><g clip-path="url(#43eae90560)"><g clip-rule="nonzero" clip-path="url(#88d55fe90d)"><path style=" stroke:none;fill-rule:nonzero;fill:#ffffff;fill-opacity:1;" d="M 988.179688 75.253906 C 988.070312 74.925781 984.417969 67.203125 983.355469 69.550781 C 960.886719 119.082031 906.5625 158.976562 850.691406 142.890625 C 785.949219 124.25 751.097656 56.019531 692.167969 26.675781 C 621.613281 -8.472656 527.558594 9.0625 494.949219 86.832031 C 462.335938 9.050781 368.28125 -8.472656 297.714844 26.664062 C 238.785156 56.007812 203.9375 124.25 139.195312 142.878906 C 83.332031 158.957031 28.996094 119.074219 6.527344 69.539062 C 5.464844 67.191406 1.8125 74.914062 1.703125 75.242188 C 0.628906 78.519531 3.699219 86.316406 4.476562 89.671875 C 6.804688 99.609375 9.960938 109.34375 13.886719 118.753906 C 35.578125 170.675781 84.234375 221.789062 127.417969 256.8125 C 183.945312 302.664062 256.054688 307.421875 324.308594 289.328125 C 385.828125 273.023438 452.390625 243.820312 486.679688 187.09375 C 489.957031 181.664062 492.601562 176.039062 494.9375 170.335938 C 497.273438 176.050781 499.914062 181.675781 503.195312 187.09375 C 537.484375 243.820312 604.058594 273.011719 665.566406 289.328125 C 733.816406 307.421875 805.925781 302.664062 862.457031 256.8125 C 905.640625 221.789062 954.296875 170.675781 975.984375 118.753906 C 979.921875 109.34375 983.082031 99.609375 985.394531 89.671875 C 986.195312 86.339844 989.253906 78.53125 988.179688 75.253906 Z M 988.179688 75.253906 "/></g></g><mask id="bca15cd596"><g filter="url(#1c853204e9)"><rect x="0" width="990" y="0" height="318.749988" style="fill:#000000;fill-opacity:0.4;stroke:none;"/></g></mask></g></g></g></svg>